<?xml version="1.0" encoding="utf-8"?>
<!DOCTYPE svg PUBLIC "-//W3C//DTD SVG 1.1//EN" "http://www.w3.org/Graphics/SVG/1.1/DTD/svg11.dtd">
<svg version="1.1" id="Layer_1" xmlns="http://www.w3.org/2000/svg" xmlns:xlink="http://www.w3.org/1999/xlink" x="0px" y="0px"
	 width="850.39px" height="850.39px" viewBox="0 0 850.39 850.39" enable-background="new 0 0 850.39 850.39" xml:space="preserve">
<path fill="#572D86" d="M139.851,0h49.887v79.926C369.91,42.572,729.184,40.605,731.079,352.065
	c1.341,219.864-388.26,186.412-501.262,257.694C107,687.234,162.169,851.006,162.169,851.006s-74.312-153.548-22.318-253.603
	V117.149c-21.352-1.375-39.25,0.063-50.428,3.322c-3.182-6.907,16.423-17.677,50.428-28.033V0L139.851,0z M189.737,124.715v419.172
	c52.78-35.798,143.355-79.08,160.861-161.938C385.758,215.487,279.873,146.379,189.737,124.715z"/>
</svg>
